<svg xmlns="http://www.w3.org/2000/svg" viewBox="0 0 442.385 442.385"><path fill="#ff6c00" d="M439.457 70.728l-4.337-4.337 4.568-5.785a10 10 0 00-.776-13.269L395.048 3.474a10.002 10.002 0 00-13.27-.776l-5.784 4.568-4.333-4.333c-3.905-3.905-10.235-3.905-14.143 0-3.905 3.905-3.905 10.237 0 14.142l2.672 2.672-8.922 7.046-3.78-3.78c-3.906-3.905-10.238-3.905-14.143 0-3.905 3.905-3.905 10.237 0 14.142l2.118 2.118-7.012 5.538a10.004 10.004 0 00-3.785 7.263 10.009 10.009 0 002.912 7.656l1.719 1.72-129.15 129.153-112.883-.007c-23.304 0-45.217 9.078-61.702 25.563S0 254.556 0 277.864c.008 23.31 9.086 45.222 25.563 61.698 14.221 14.221 32.491 22.93 52.214 25.054 4.745 43.666 41.837 77.766 86.744 77.766 23.314 0 45.229-9.076 61.709-25.555 16.479-16.479 25.556-38.395 25.556-61.709V242.241L380.939 113.09l1.716 1.716a10 10 0 0014.919-.873l5.538-7.012 2.121 2.122a9.968 9.968 0 007.071 2.929 9.972 9.972 0 007.071-2.929c3.905-3.905 3.905-10.237 0-14.142l-3.783-3.783 7.046-8.922 2.675 2.675a9.968 9.968 0 007.071 2.929 9.972 9.972 0 007.071-2.929c3.907-3.906 3.907-10.238.002-14.143zM231.786 355.117c0 17.972-6.995 34.865-19.698 47.566-12.702 12.702-29.595 19.698-47.566 19.698-37.085 0-67.257-30.171-67.257-67.257 0-5.521-4.475-9.998-9.997-10-17.971-.006-34.862-7.004-47.563-19.705S20.006 295.828 20 277.861c0-17.962 6.998-34.853 19.705-47.559 12.707-12.707 29.597-19.705 47.559-19.705l92.885.006-11.033 11.033a9.999 9.999 0 003.481 16.405c7.229 2.781 13.698 6.995 19.228 12.524 5.53 5.529 9.743 11.999 12.524 19.228a9.996 9.996 0 009.334 6.41 10 10 0 007.071-2.929l11.033-11.033v92.876zm-15.422-105.738a75.499 75.499 0 00-10.396-12.957 75.543 75.543 0 00-12.957-10.397l150.43-150.431 23.354 23.354-150.431 150.431zM418.48 55.191l-29.633 37.522-39.174-39.174 37.521-29.633 31.286 31.285z"/><path fill="#ff6c00" d="M185.884 256.501c-8.87-8.869-20.662-13.753-33.205-13.753s-24.335 4.884-33.205 13.754c-18.309 18.309-18.309 48.1 0 66.409 8.87 8.869 20.662 13.753 33.205 13.753s24.335-4.884 33.205-13.753c18.309-18.309 18.309-48.1 0-66.41zm-14.142 52.267c-5.091 5.092-11.861 7.896-19.062 7.896s-13.971-2.804-19.062-7.896c-10.511-10.511-10.511-27.614 0-38.125 5.091-5.092 11.861-7.896 19.062-7.896s13.971 2.804 19.062 7.896c10.511 10.511 10.511 27.615 0 38.125z"/><path fill="#f60038" d="M99.909 312.177c-3.905-3.905-10.237-3.905-14.143 0-3.905 3.905-3.905 10.237 0 14.143l30.3 30.3c1.953 1.953 4.512 2.929 7.071 2.929s5.119-.976 7.071-2.929c3.905-3.905 3.905-10.237 0-14.143l-30.299-30.3zm2.713-156.257c16.679 0 30.249-13.57 30.249-30.249V71.785l54.997-9.899v21.828a30.102 30.102 0 00-10.249-1.791c-16.679 0-30.249 13.57-30.249 30.249s13.57 30.249 30.249 30.249 30.249-13.57 30.249-30.249V49.925a10 10 0 00-11.772-9.842l-74.997 13.5a10 10 0 00-8.229 9.842v33.788a30.102 30.102 0 00-10.249-1.791c-16.679 0-30.249 13.57-30.249 30.249s13.571 30.249 30.25 30.249zm74.997-33.499c-5.651 0-10.249-4.598-10.249-10.249s4.598-10.249 10.249-10.249 10.249 4.598 10.249 10.249-4.598 10.249-10.249 10.249zm-74.997-6.999c5.651 0 10.249 4.598 10.249 10.249s-4.598 10.249-10.249 10.249-10.249-4.598-10.249-10.249 4.598-10.249 10.249-10.249z"/></svg>