<?xml version="1.0" encoding="iso-8859-1"?>
<!-- Generator: Adobe Illustrator 18.0.0, SVG Export Plug-In . SVG Version: 6.00 Build 0)  -->
<!DOCTYPE svg PUBLIC "-//W3C//DTD SVG 1.1//EN" "http://www.w3.org/Graphics/SVG/1.1/DTD/svg11.dtd">
<svg version="1.1" id="Capa_1" xmlns="http://www.w3.org/2000/svg" xmlns:xlink="http://www.w3.org/1999/xlink" x="0px" y="0px"
	 viewBox="0 0 442.385 442.385" style="enable-background:new 0 0 442.385 442.385;" xml:space="preserve">
<g>
	<path fill="#ff6c00" d="M439.457,70.728l-4.337-4.337l4.568-5.785c3.144-3.98,2.81-9.683-0.776-13.269L395.048,3.474
		c-3.587-3.585-9.289-3.92-13.27-0.776l-5.784,4.568l-4.333-4.333c-3.905-3.905-10.235-3.905-14.143,0
		c-3.905,3.905-3.905,10.237,0,14.142l2.672,2.672l-8.922,7.046l-3.78-3.78c-3.906-3.905-10.238-3.905-14.143,0
		c-3.905,3.905-3.905,10.237,0,14.142l2.118,2.118l-7.012,5.538c-2.24,1.77-3.618,4.413-3.785,7.263
		c-0.166,2.851,0.894,5.636,2.912,7.656l1.719,1.72L200.147,190.603l-112.883-0.007c-23.304,0-45.217,9.078-61.702,25.563
		S0,254.556,0,277.864c0.008,23.31,9.086,45.222,25.563,61.698c14.221,14.221,32.491,22.93,52.214,25.054
		c4.745,43.666,41.837,77.766,86.744,77.766c23.314,0,45.229-9.076,61.709-25.555c16.479-16.479,25.556-38.395,25.556-61.709
		V242.241L380.939,113.09l1.716,1.716c1.881,1.881,4.427,2.929,7.07,2.929c0.194,0,0.39-0.006,0.585-0.017
		c2.851-0.167,5.494-1.544,7.264-3.785l5.538-7.012l2.121,2.122c1.953,1.953,4.512,2.929,7.071,2.929
		c2.559,0,5.118-0.977,7.071-2.929c3.905-3.905,3.905-10.237,0-14.142l-3.783-3.783l7.046-8.922l2.675,2.675
		c1.953,1.953,4.512,2.929,7.071,2.929c2.559,0,5.118-0.977,7.071-2.929C443.362,80.965,443.362,74.633,439.457,70.728z
		 M231.786,355.117c0,17.972-6.995,34.865-19.698,47.566c-12.702,12.702-29.595,19.698-47.566,19.698
		c-37.085,0-67.257-30.171-67.257-67.257c0-5.521-4.475-9.998-9.997-10c-17.971-0.006-34.862-7.004-47.563-19.705
		S20.006,295.828,20,277.861c0-17.962,6.998-34.853,19.705-47.559c12.707-12.707,29.597-19.705,47.559-19.705l92.885,0.006
		l-11.033,11.033c-2.394,2.394-3.414,5.836-2.711,9.147c0.703,3.312,3.033,6.042,6.192,7.258
		c7.229,2.781,13.698,6.995,19.228,12.524c5.53,5.529,9.743,11.999,12.524,19.228c1.215,3.16,3.946,5.49,7.258,6.192
		c0.69,0.146,1.385,0.218,2.076,0.218c2.624,0,5.176-1.034,7.071-2.929l11.033-11.033V355.117z M216.364,249.379
		c-2.952-4.655-6.426-8.986-10.396-12.957c-3.972-3.971-8.302-7.444-12.957-10.397L343.441,75.594l23.354,23.354L216.364,249.379z
		 M418.48,55.191l-29.633,37.522l-39.174-39.174l37.521-29.633L418.48,55.191z"/>
	<path  fill="#ff6c00" d="M185.884,256.501c-8.87-8.869-20.662-13.753-33.205-13.753s-24.335,4.884-33.205,13.754
		c-18.309,18.309-18.309,48.1,0,66.409c8.87,8.869,20.662,13.753,33.205,13.753s24.335-4.884,33.205-13.753
		C204.193,304.602,204.193,274.811,185.884,256.501L185.884,256.501z M171.742,308.768c-5.091,5.092-11.861,7.896-19.062,7.896
		s-13.971-2.804-19.062-7.896c-10.511-10.511-10.511-27.614,0-38.125c5.091-5.092,11.861-7.896,19.062-7.896
		s13.971,2.804,19.062,7.896C182.253,281.154,182.253,298.258,171.742,308.768z"/>
	<path fill="#f60038" d="M99.909,312.177c-3.905-3.905-10.237-3.905-14.143,0c-3.905,3.905-3.905,10.237,0,14.143l30.3,30.3
		c1.953,1.953,4.512,2.929,7.071,2.929s5.119-0.976,7.071-2.929c3.905-3.905,3.905-10.237,0-14.143L99.909,312.177z"/>
	<path fill="#f60038" d="M102.622,155.92c16.679,0,30.249-13.57,30.249-30.249V71.785l54.997-9.899v21.828c-3.202-1.157-6.653-1.791-10.249-1.791
		c-16.679,0-30.249,13.57-30.249,30.249s13.57,30.249,30.249,30.249s30.249-13.57,30.249-30.249V49.925
		c0-2.962-1.313-5.772-3.586-7.672c-2.272-1.899-5.269-2.692-8.186-2.17l-74.997,13.5c-4.763,0.857-8.229,5.002-8.229,9.842v33.788
		c-3.202-1.157-6.653-1.791-10.249-1.791c-16.679,0-30.249,13.57-30.249,30.249S85.943,155.92,102.622,155.92z M177.619,122.421
		c-5.651,0-10.249-4.598-10.249-10.249s4.598-10.249,10.249-10.249s10.249,4.598,10.249,10.249S183.27,122.421,177.619,122.421z
		 M102.622,115.422c5.651,0,10.249,4.598,10.249,10.249s-4.598,10.249-10.249,10.249s-10.249-4.598-10.249-10.249
		S96.971,115.422,102.622,115.422z"/>
</g>
<g>
</g>
<g>
</g>
<g>
</g>
<g>
</g>
<g>
</g>
<g>
</g>
<g>
</g>
<g>
</g>
<g>
</g>
<g>
</g>
<g>
</g>
<g>
</g>
<g>
</g>
<g>
</g>
<g>
</g>
</svg>
